<svg width="17" height="17" viewBox="0 0 17 17" fill="none" xmlns="http://www.w3.org/2000/svg">
<path d="M13.5469 15.9375H6.10938C5.47534 15.9375 4.86728 15.6856 4.41895 15.2373C3.97062 14.789 3.71875 14.1809 3.71875 13.5469V6.10938C3.71875 5.47534 3.97062 4.86728 4.41895 4.41895C4.86728 3.97062 5.47534 3.71875 6.10938 3.71875H13.5469C14.1809 3.71875 14.789 3.97062 15.2373 4.41895C15.6856 4.86728 15.9375 5.47534 15.9375 6.10938V13.5469C15.9375 14.1809 15.6856 14.789 15.2373 15.2373C14.789 15.6856 14.1809 15.9375 13.5469 15.9375Z" fill="#EB8F44"/>
<path d="M5.3125 2.65625H13.1445C12.9792 2.19049 12.6738 1.78728 12.2703 1.50194C11.8668 1.2166 11.3848 1.0631 10.8906 1.0625H3.45312C2.81909 1.0625 2.21103 1.31437 1.7627 1.7627C1.31437 2.21103 1.0625 2.81909 1.0625 3.45312V10.8906C1.0631 11.3848 1.2166 11.8668 1.50194 12.2703C1.78728 12.6738 2.19049 12.9792 2.65625 13.1445V5.3125C2.65625 4.60802 2.9361 3.93239 3.43425 3.43425C3.93239 2.9361 4.60802 2.65625 5.3125 2.65625Z" fill="#EB8F44"/>
</svg>
