<svg width="18" height="10" viewBox="0 0 18 10" fill="none" xmlns="http://www.w3.org/2000/svg">
<path d="M7.95039 9.34655L0.700391 2.24759C0.600391 2.14968 0.525724 2.04392 0.476391 1.93034C0.427058 1.81676 0.401724 1.69404 0.400391 1.56217C0.400391 1.30106 0.492391 1.07259 0.676391 0.876757C0.860391 0.680924 1.10172 0.583008 1.40039 0.583008H16.6004C16.9004 0.583008 17.1424 0.680924 17.3264 0.876757C17.5104 1.07259 17.6017 1.30106 17.6004 1.56217C17.6004 1.62745 17.5004 1.85593 17.3004 2.24759L10.0504 9.34655C9.88372 9.50974 9.71706 9.62398 9.55039 9.68926C9.38372 9.75453 9.20039 9.78717 9.00039 9.78717C8.80039 9.78717 8.61706 9.75453 8.45039 9.68926C8.28373 9.62398 8.11706 9.50974 7.95039 9.34655Z" fill="#F1F1F1"/>
</svg>
